<svg width="26" height="26" viewBox="0 0 26 26" fill="none" xmlns="http://www.w3.org/2000/svg">
<g clip-path="url(#clip0_1_305)">
<path d="M9.74996 25.0715C10.3483 25.0715 10.8333 24.6558 10.8333 24.1429C10.8333 23.6301 10.3483 23.2144 9.74996 23.2144C9.15166 23.2144 8.66663 23.6301 8.66663 24.1429C8.66663 24.6558 9.15166 25.0715 9.74996 25.0715Z" stroke="#333232" stroke-linecap="round" stroke-linejoin="round"/>
<path d="M21.6667 25.0715C22.265 25.0715 22.75 24.6558 22.75 24.1429C22.75 23.6301 22.265 23.2144 21.6667 23.2144C21.0684 23.2144 20.5834 23.6301 20.5834 24.1429C20.5834 24.6558 21.0684 25.0715 21.6667 25.0715Z" stroke="#333232" stroke-linecap="round" stroke-linejoin="round"/>
<path d="M1.08337 0.928467H5.41671L8.32004 15.8484C8.4191 16.3614 8.69044 16.8222 9.08655 17.1502C9.48265 17.4781 9.9783 17.6524 10.4867 17.6423H21.0167C21.5251 17.6524 22.0207 17.4781 22.4169 17.1502C22.813 16.8222 23.0844 16.3614 23.1834 15.8484L24.9167 6.49976H6.50004" stroke="#333232" stroke-linecap="round" stroke-linejoin="round"/>
</g>
<defs>
<clipPath id="clip0_1_305">
<rect width="26" height="26" fill="white"/>
</clipPath>
</defs>
</svg>
