<svg width="20" height="22" viewBox="0 0 20 22" fill="none" xmlns="http://www.w3.org/2000/svg">
<path d="M17.403 5.78949H2.59701C2.43868 5.78949 2.28682 5.72849 2.17486 5.61992C2.0629 5.51134 2 5.36409 2 5.21054C2 5.05699 2.0629 4.90973 2.17486 4.80116C2.28682 4.69259 2.43868 4.63159 2.59701 4.63159H17.403C17.5613 4.63159 17.7132 4.69259 17.8251 4.80116C17.9371 4.90973 18 5.05699 18 5.21054C18 5.36409 17.9371 5.51134 17.8251 5.61992C17.7132 5.72849 17.5613 5.78949 17.403 5.78949Z" fill="#F8FCFF"/>
<path d="M17.403 11.579H2.59701C2.43868 11.579 2.28682 11.518 2.17486 11.4095C2.0629 11.3009 2 11.1536 2 11.0001C2 10.8465 2.0629 10.6993 2.17486 10.5907C2.28682 10.4821 2.43868 10.4211 2.59701 10.4211H17.403C17.5613 10.4211 17.7132 10.4821 17.8251 10.5907C17.9371 10.6993 18 10.8465 18 11.0001C18 11.1536 17.9371 11.3009 17.8251 11.4095C17.7132 11.518 17.5613 11.579 17.403 11.579Z" fill="#F8FCFF"/>
<path d="M13.5522 17.3683H2.44776C2.32901 17.3683 2.21512 17.3073 2.13115 17.1988C2.04717 17.0902 2 16.9429 2 16.7894C2 16.6359 2.04717 16.4886 2.13115 16.38C2.21512 16.2714 2.32901 16.2104 2.44776 16.2104H13.5522C13.671 16.2104 13.7849 16.2714 13.8689 16.38C13.9528 16.4886 14 16.6359 14 16.7894C14 16.9429 13.9528 17.0902 13.8689 17.1988C13.7849 17.3073 13.671 17.3683 13.5522 17.3683Z" fill="#F8FCFF"/>
</svg>
